<?xml version="1.0" standalone="no"?>
<!DOCTYPE svg PUBLIC "-//W3C//DTD SVG 20010904//EN"
 "http://www.w3.org/TR/2001/REC-SVG-20010904/DTD/svg10.dtd">
<svg version="1.0" xmlns="http://www.w3.org/2000/svg"
 width="1820.000000pt" height="1214.000000pt" viewBox="0 0 1820.000000 1214.000000"
 preserveAspectRatio="xMidYMid meet">

<g transform="translate(0.000000,1214.000000) scale(0.100000,-0.100000)"
fill="#000000" stroke="none">
<path d="M0 6070 l0 -6070 9100 0 9100 0 0 6070 0 6070 -9100 0 -9100 0 0
-6070z m8045 5868 c14 -6 25 -15 25 -20 0 -4 9 -8 20 -8 11 0 20 -4 20 -10 0
-5 9 -10 20 -10 11 0 20 -3 20 -8 0 -4 15 -14 33 -21 17 -8 37 -20 44 -25 34
-30 43 -36 56 -36 7 0 23 -9 35 -20 12 -11 28 -20 37 -20 8 0 15 -4 15 -10 0
-5 7 -10 15 -10 8 0 24 -8 35 -17 20 -17 20 -25 20 -2410 0 -1316 2 -2393 5
-2393 7 0 49 24 55 31 3 3 39 23 80 45 41 21 77 42 78 47 2 4 8 7 13 7 5 0 33
16 63 35 30 19 60 35 66 35 5 0 10 5 10 10 0 6 9 10 20 10 11 0 20 3 20 8 0 4
15 14 33 22 31 13 41 20 72 48 7 6 18 12 24 12 10 0 74 36 186 103 17 10 38
21 48 24 9 3 17 9 17 14 0 5 9 9 20 9 11 0 20 4 20 8 0 4 25 21 55 37 30 17
55 33 55 38 0 4 9 7 20 7 11 0 20 5 20 10 0 6 8 10 18 10 10 0 27 8 38 18 10
9 36 26 57 37 20 11 37 23 37 27 0 5 7 8 15 8 9 0 57 25 107 55 50 30 95 55
100 55 4 0 8 5 8 10 0 6 4 10 9 10 12 0 175 93 179 102 2 4 12 8 23 8 10 0 19
5 19 10 0 6 7 10 15 10 8 0 15 3 15 8 0 4 15 13 33 21 17 8 39 19 47 26 8 7
40 26 70 42 30 17 71 40 90 52 19 12 43 24 53 27 9 4 17 10 17 15 0 5 9 9 20
9 11 0 20 4 20 9 0 5 9 11 20 14 20 5 20 14 20 1235 0 677 4 1233 8 1236 9 5
75 -24 80 -36 2 -4 10 -8 18 -8 8 0 14 -4 14 -10 0 -5 7 -10 15 -10 15 0 25
-6 60 -37 7 -7 21 -13 29 -13 9 0 16 -4 16 -10 0 -5 7 -10 15 -10 8 0 15 -4
15 -10 0 -5 9 -10 20 -10 11 0 20 -4 20 -10 0 -5 9 -10 19 -10 11 0 21 -4 23
-8 3 -8 51 -37 153 -93 33 -18 62 -36 63 -41 2 -4 9 -8 17 -8 7 0 18 -7 25
-15 7 -8 21 -15 31 -15 11 0 19 -4 19 -10 0 -5 6 -10 13 -10 6 0 23 -9 37 -20
14 -11 31 -20 38 -20 12 0 19 -5 55 -35 7 -6 27 -17 45 -24 17 -7 32 -17 32
-22 0 -5 9 -9 20 -9 11 0 20 -4 20 -10 0 -5 6 -10 13 -11 6 0 32 -13 57 -29
25 -16 61 -37 80 -46 19 -10 53 -30 75 -44 22 -15 50 -30 63 -34 12 -4 22 -11
22 -15 0 -4 16 -13 35 -21 19 -8 35 -16 35 -19 0 -4 15 -13 33 -20 17 -8 55
-30 84 -48 29 -18 57 -33 63 -33 5 0 10 -3 10 -8 0 -4 15 -13 33 -21 17 -8 34
-17 37 -21 4 -6 47 -30 155 -89 17 -9 32 -18 35 -22 3 -3 22 -14 43 -25 73
-36 77 -39 77 -46 0 -5 9 -8 19 -8 11 0 21 -4 23 -8 2 -5 35 -26 73 -47 39
-21 72 -42 75 -45 3 -4 20 -13 38 -21 17 -8 32 -17 32 -21 0 -5 9 -8 19 -8 11
0 21 -4 23 -8 3 -8 75 -52 125 -76 13 -6 23 -14 23 -18 0 -5 7 -8 17 -8 9 0
30 -10 47 -23 17 -13 46 -30 64 -38 17 -8 32 -17 32 -21 0 -5 5 -8 11 -8 5 0
26 -11 45 -24 l35 -23 0 -249 0 -248 -48 -28 c-26 -15 -67 -37 -90 -50 -24
-12 -43 -24 -43 -28 0 -3 -16 -12 -35 -20 -19 -8 -35 -17 -35 -22 0 -4 -7 -8
-15 -8 -9 0 -21 -5 -28 -10 -20 -17 -129 -80 -138 -80 -5 0 -9 -4 -9 -10 0 -5
-9 -10 -20 -10 -11 0 -20 -4 -20 -10 0 -5 -6 -10 -14 -10 -8 0 -16 -4 -18 -8
-1 -5 -32 -24 -68 -44 -112 -61 -164 -90 -192 -109 -14 -11 -31 -19 -37 -19
-6 0 -11 -4 -11 -10 0 -5 -9 -10 -20 -10 -11 0 -20 -4 -20 -9 0 -5 -17 -16
-37 -24 -21 -8 -48 -25 -60 -36 -12 -12 -29 -21 -38 -21 -8 0 -15 -4 -15 -10
0 -5 -9 -10 -20 -10 -11 0 -20 -4 -20 -10 0 -5 -7 -10 -15 -10 -8 0 -15 -4
-15 -10 0 -5 -9 -10 -19 -10 -11 0 -21 -4 -23 -8 -2 -5 -24 -21 -50 -35 -27
-15 -69 -39 -95 -53 -27 -15 -59 -35 -73 -44 -14 -9 -40 -23 -57 -31 -18 -8
-33 -17 -33 -21 0 -5 -6 -8 -12 -8 -7 0 -24 -9 -38 -20 -14 -11 -31 -20 -38
-20 -12 0 -23 -7 -57 -37 -7 -7 -21 -13 -29 -13 -9 0 -16 -3 -16 -8 0 -4 -15
-14 -32 -21 -18 -8 -39 -20 -45 -27 -19 -18 -19 -6244 0 -6244 6 0 23 9 37 20
14 11 33 20 42 20 9 0 18 3 20 8 5 10 105 73 163 102 50 25 109 61 132 80 7 5
18 10 25 10 7 0 24 9 38 20 14 11 31 20 38 20 6 0 12 5 12 10 0 6 6 10 13 10
7 0 35 15 62 33 28 18 71 44 98 57 26 14 47 28 47 31 0 3 20 14 45 25 l45 18
0 2644 c0 2101 3 2646 13 2656 6 7 27 19 45 27 17 7 32 17 32 21 0 5 4 8 10 8
5 0 33 15 62 33 29 18 67 39 83 47 17 8 32 17 35 20 3 3 19 12 35 20 17 8 32
18 35 21 3 3 38 23 78 44 39 21 72 42 72 47 0 4 8 8 17 8 9 0 24 6 32 14 9 7
36 24 61 37 25 13 47 26 50 29 3 3 28 17 55 30 28 14 52 27 55 30 16 17 62 40
70 35 14 -8 14 -6240 0 -6264 -5 -10 -23 -24 -40 -31 -16 -7 -30 -16 -30 -21
0 -5 -7 -9 -15 -9 -9 0 -41 -16 -71 -35 -30 -19 -58 -35 -63 -35 -5 0 -11 -3
-13 -7 -1 -5 -25 -19 -53 -33 -27 -14 -54 -28 -60 -33 -21 -16 -81 -53 -110
-67 -16 -8 -32 -17 -35 -20 -3 -3 -18 -12 -35 -20 -16 -8 -37 -20 -45 -26 -8
-7 -40 -26 -70 -41 -77 -41 -102 -56 -118 -70 -7 -7 -20 -13 -28 -13 -8 0 -14
-3 -14 -7 0 -5 -10 -13 -23 -19 -12 -6 -51 -27 -87 -46 -36 -20 -84 -46 -107
-59 -24 -12 -43 -26 -43 -31 0 -4 -9 -8 -20 -8 -11 0 -20 -4 -20 -10 0 -5 -4
-10 -10 -10 -9 0 -72 -39 -97 -60 -7 -5 -17 -10 -23 -10 -6 0 -39 -18 -75 -39
-36 -22 -74 -42 -85 -46 -11 -3 -20 -11 -20 -16 0 -5 -6 -9 -12 -9 -7 0 -24
-9 -38 -20 -14 -11 -32 -20 -42 -20 -9 0 -18 -3 -20 -7 -4 -9 -70 -52 -113
-73 -16 -8 -32 -17 -35 -20 -3 -3 -18 -12 -35 -20 -16 -8 -32 -18 -35 -21 -3
-3 -34 -21 -70 -41 -113 -61 -165 -91 -170 -98 -3 -4 -20 -13 -37 -21 -18 -8
-33 -17 -33 -21 0 -5 -9 -8 -19 -8 -11 0 -21 -6 -24 -12 -4 -10 -7 -10 -18 0
-7 6 -21 12 -31 12 -10 0 -18 3 -18 8 0 4 -18 16 -40 26 -22 11 -40 22 -40 26
0 3 -16 12 -35 19 -19 7 -35 17 -35 22 0 5 -9 9 -20 9 -11 0 -20 5 -20 10 0 6
-4 10 -10 10 -5 0 -34 16 -64 35 -30 19 -60 35 -66 35 -5 0 -10 5 -10 10 0 6
-7 10 -15 10 -13 0 -15 273 -15 2395 0 1423 -4 2395 -9 2395 -13 0 -95 -44
-99 -52 -2 -5 -8 -8 -13 -8 -5 0 -33 -16 -63 -35 -30 -19 -60 -35 -66 -35 -5
0 -10 -4 -10 -8 0 -5 -16 -14 -35 -22 -19 -8 -35 -17 -35 -22 0 -4 -4 -8 -9
-8 -8 0 -40 -17 -151 -81 -14 -8 -27 -16 -30 -19 -3 -3 -21 -13 -40 -23 -55
-29 -115 -62 -120 -67 -5 -5 -20 -14 -99 -58 -25 -14 -48 -28 -51 -31 -3 -4
-27 -17 -55 -31 -27 -14 -51 -28 -53 -32 -2 -5 -8 -8 -13 -8 -6 0 -35 -16 -65
-35 -30 -19 -59 -35 -64 -35 -6 0 -10 -4 -10 -10 0 -5 -7 -10 -15 -10 -9 0
-38 -16 -66 -35 -28 -19 -57 -35 -65 -35 -8 0 -14 -3 -14 -7 0 -5 -10 -13 -23
-19 -32 -15 -118 -64 -147 -83 -14 -9 -38 -23 -55 -31 -16 -8 -32 -17 -35 -20
-3 -3 -18 -12 -35 -20 -16 -8 -32 -18 -35 -21 -3 -4 -34 -22 -70 -41 -85 -45
-114 -62 -120 -69 -3 -3 -30 -19 -60 -35 -30 -16 -57 -31 -60 -34 -9 -9 -85
-51 -102 -57 -17 -5 -18 -73 -18 -1239 l0 -1234 -20 0 c-12 0 -26 5 -33 10
-25 21 -88 60 -97 60 -6 0 -10 5 -10 10 0 6 -9 10 -20 10 -11 0 -20 3 -20 8 0
4 -15 13 -32 21 -18 8 -46 24 -63 35 -42 30 -87 56 -107 62 -10 4 -18 10 -18
15 0 5 -9 9 -20 9 -11 0 -20 5 -20 10 0 6 -6 10 -14 10 -8 0 -21 6 -28 13 -7
7 -35 23 -63 37 -27 14 -51 28 -53 33 -2 4 -8 7 -13 7 -5 0 -33 16 -63 35 -30
19 -60 35 -66 35 -5 0 -10 3 -10 8 0 4 -15 14 -32 21 -39 17 -112 63 -116 74
-2 4 -12 7 -23 7 -10 0 -19 3 -19 8 0 4 -15 13 -32 21 -18 8 -35 17 -38 20 -6
8 -74 45 -122 68 -21 10 -38 21 -38 25 0 5 -7 8 -15 8 -9 0 -24 8 -35 18 -10
9 -45 31 -77 47 -32 17 -59 33 -61 38 -2 4 -10 7 -18 7 -8 0 -14 5 -14 10 0 6
-9 10 -19 10 -11 0 -21 4 -23 8 -3 8 -69 48 -156 93 -29 16 -66 37 -80 47 -15
11 -49 32 -77 47 -27 15 -70 39 -95 53 -25 14 -56 32 -70 42 -14 9 -40 22 -57
29 -18 8 -33 17 -33 22 0 5 -4 9 -9 9 -14 0 -135 72 -139 82 -2 4 -12 8 -23 8
-10 0 -19 4 -19 8 0 5 -16 14 -35 22 -19 8 -35 17 -35 22 0 4 -6 8 -14 8 -7 0
-19 7 -26 15 -7 8 -21 15 -31 15 -11 0 -19 3 -19 8 0 4 -10 12 -23 18 -42 20
-122 67 -127 74 -3 4 -15 10 -27 14 -13 4 -23 15 -23 24 0 44 -1 469 0 479 0
14 39 40 135 92 102 56 150 85 153 93 2 4 12 8 23 8 10 0 19 4 19 8 0 5 16 14
35 22 19 8 35 16 35 19 0 4 14 12 30 19 17 8 36 19 43 25 6 7 30 21 52 33 62
32 119 65 132 76 7 5 43 26 80 45 37 19 75 41 83 48 8 7 25 16 36 19 12 4 34
18 50 31 16 14 37 25 47 25 9 0 17 5 17 10 0 6 5 10 10 10 6 0 36 16 66 35 30
19 58 35 63 35 5 0 11 3 13 8 2 4 26 18 53 32 28 14 56 31 63 37 7 7 20 13 28
13 8 0 14 4 14 9 0 5 8 11 18 14 28 9 167 89 170 98 2 5 12 9 23 9 10 0 19 5
19 10 0 6 7 10 15 10 8 0 15 5 15 10 0 6 9 10 19 10 11 0 21 4 23 8 2 5 30 24
63 43 l60 35 3 3122 c1 1717 0 3122 -4 3122 -3 0 -22 -11 -42 -25 -20 -14 -42
-25 -49 -25 -7 0 -13 -4 -13 -10 0 -5 -9 -10 -20 -10 -11 0 -20 -4 -20 -10 0
-5 -4 -10 -10 -10 -5 0 -40 -19 -77 -43 -38 -23 -81 -49 -98 -57 -16 -8 -32
-17 -35 -20 -3 -3 -18 -12 -35 -20 -16 -8 -43 -24 -60 -36 -16 -11 -46 -28
-65 -37 -19 -10 -53 -28 -75 -42 -22 -14 -47 -28 -55 -32 -8 -3 -34 -19 -57
-35 -23 -15 -49 -28 -57 -28 -9 0 -16 -4 -16 -9 0 -5 -9 -11 -20 -14 -20 -5
-20 -14 -20 -2647 0 -2100 -3 -2644 -12 -2654 -7 -7 -35 -25 -63 -41 -27 -16
-51 -33 -53 -37 -2 -4 -12 -8 -23 -8 -10 0 -19 -4 -19 -10 0 -5 -7 -10 -15
-10 -8 0 -15 -3 -15 -8 0 -4 -15 -14 -32 -21 -18 -8 -55 -29 -83 -46 -27 -17
-76 -44 -107 -61 -32 -16 -58 -32 -58 -36 0 -5 -7 -8 -15 -8 -8 0 -15 -4 -15
-10 0 -5 -9 -10 -20 -10 -11 0 -20 -3 -20 -8 0 -4 -15 -13 -32 -21 -18 -8 -35
-17 -38 -21 -3 -3 -31 -19 -62 -35 -32 -17 -58 -33 -58 -37 0 -5 -7 -8 -15 -8
-8 0 -15 -4 -15 -10 0 -5 -9 -10 -20 -10 -11 0 -20 -4 -20 -10 0 -5 -9 -10
-20 -10 -20 0 -20 7 -20 3124 0 1718 3 3131 6 3140 3 9 11 16 17 16 6 0 18 6
26 14 9 7 41 27 71 43 30 17 80 45 110 62 30 18 63 35 73 38 9 3 17 8 17 12 0
4 16 13 35 21 19 8 35 17 35 22 0 4 5 8 10 8 12 0 94 52 98 63 2 4 12 7 23 7
10 0 19 4 19 8 0 5 16 14 35 22 19 8 35 17 35 22 0 4 9 8 19 8 11 0 21 4 23 8
3 8 54 39 153 93 33 17 67 38 76 45 8 8 21 14 27 14 7 0 12 5 12 10 0 6 9 10
20 10 11 0 20 5 20 10 0 6 9 10 20 10 11 0 20 4 20 8 0 4 24 21 53 36 28 16
54 31 57 35 3 3 28 17 55 31 28 14 52 27 55 30 3 3 23 14 45 25 22 11 46 26
53 32 7 7 30 20 50 29 20 10 51 27 67 39 17 12 45 27 63 34 17 8 32 16 32 20
0 3 14 12 31 20 32 14 137 75 154 89 6 4 25 15 43 22 17 8 32 18 32 22 0 5 9
8 20 8 11 0 20 5 20 10 0 6 7 10 15 10 8 0 15 4 15 8 0 5 28 23 63 41 34 17
89 47 122 66 69 39 66 39 100 23z"/>
<path d="M11310 8815 c0 -129 3 -235 8 -235 4 0 32 15 62 32 81 48 130 75 173
95 20 10 37 21 37 25 0 5 7 8 15 8 8 0 15 5 15 10 0 6 9 10 20 10 11 0 20 4
20 8 0 5 17 16 37 26 l37 18 -24 19 c-14 10 -31 19 -37 19 -7 0 -13 4 -13 8 0
5 -16 14 -35 22 -19 8 -35 17 -35 22 0 4 -9 8 -19 8 -11 0 -21 4 -23 8 -4 10
-125 82 -139 82 -5 0 -9 5 -9 10 0 6 -8 10 -19 10 -10 0 -24 7 -31 15 -7 8
-19 15 -26 15 -12 0 -14 -42 -14 -235z"/>
<path d="M10385 7047 c-22 -12 -41 -25 -43 -29 -2 -5 -8 -8 -13 -8 -6 0 -35
-16 -65 -35 -30 -19 -58 -35 -63 -35 -5 0 -11 -3 -13 -7 -1 -5 -25 -19 -53
-33 -27 -14 -52 -27 -55 -30 -13 -15 -61 -40 -75 -40 -8 0 -15 -4 -15 -8 0 -5
-34 -26 -75 -47 -41 -22 -75 -42 -75 -46 0 -4 -16 -13 -35 -20 -19 -7 -35 -17
-35 -21 0 -4 -4 -8 -9 -8 -9 0 -131 -69 -141 -80 -3 -3 -27 -16 -55 -30 -27
-14 -52 -27 -55 -31 -3 -3 -34 -21 -70 -41 -102 -55 -189 -108 -195 -118 -3
-6 -15 -10 -26 -10 -10 0 -19 -3 -19 -7 0 -5 -28 -21 -61 -38 -33 -16 -69 -38
-79 -47 -11 -10 -26 -18 -35 -18 -8 0 -15 -4 -15 -8 0 -5 -16 -14 -35 -22 -19
-8 -35 -17 -35 -22 0 -4 -9 -8 -20 -8 -11 0 -20 -3 -20 -7 0 -5 -25 -21 -55
-38 -30 -16 -55 -33 -55 -37 0 -4 -9 -8 -20 -8 -19 0 -29 -5 -64 -37 -7 -6
-35 -22 -62 -34 -27 -13 -51 -25 -54 -29 -3 -3 -27 -17 -55 -30 -27 -14 -56
-31 -63 -37 -7 -7 -18 -13 -23 -13 -5 0 -9 -191 -9 -480 0 -264 3 -480 6 -480
12 0 104 55 104 63 0 4 9 7 20 7 11 0 20 5 20 10 0 6 6 10 14 10 8 0 16 3 18
8 2 4 29 20 61 37 31 16 57 33 57 37 0 4 8 8 18 8 10 0 28 9 40 20 12 11 28
20 36 20 8 0 16 3 18 8 2 4 20 15 40 26 20 10 46 27 57 37 11 11 27 19 36 19
8 0 15 5 15 10 0 6 6 10 14 10 12 0 113 55 141 77 6 4 33 19 60 33 28 14 52
28 53 33 2 4 8 7 14 7 5 0 24 11 41 24 18 13 47 29 65 37 17 8 32 17 32 21 0
5 7 8 17 8 9 0 30 11 48 24 31 24 61 42 154 93 25 13 64 35 86 49 22 14 48 27
58 31 9 3 17 9 17 14 0 5 9 9 20 9 11 0 20 4 20 9 0 5 15 14 33 22 17 7 46 23
63 36 17 13 36 23 42 23 7 0 12 5 12 10 0 6 9 10 20 10 11 0 20 3 20 8 0 4 15
13 33 21 17 8 39 20 47 26 8 7 32 22 53 34 167 94 202 115 205 123 2 4 12 8
23 8 10 0 19 5 19 10 0 6 9 10 20 10 20 0 20 7 20 480 0 378 -3 480 -12 479
-7 0 -31 -10 -53 -22z"/>
<path d="M7538 3453 c-3 -9 -61 -42 -120 -70 -21 -10 -38 -21 -38 -25 0 -5 -4
-8 -9 -8 -12 0 -175 -93 -179 -102 -2 -4 -10 -8 -18 -8 -8 0 -14 -4 -14 -10 0
-5 7 -10 15 -10 8 0 15 -3 15 -8 0 -4 34 -25 75 -47 41 -21 75 -42 75 -45 0
-4 16 -12 35 -20 19 -8 35 -17 35 -22 0 -4 9 -8 19 -8 11 0 21 -4 23 -9 3 -8
111 -71 122 -71 4 0 6 106 6 235 0 225 -1 235 -19 235 -11 0 -21 -3 -23 -7z"/>
</g>
</svg>
